<svg height="512" viewBox="0 0 64 64" width="512" xmlns="http://www.w3.org/2000/svg"><g id="Source_code-4" data-name="Source code"><path d="m7 17h44a0 0 0 0 1 0 0v32a2 2 0 0 1 -2 2h-40a2 2 0 0 1 -2-2v-32a0 0 0 0 1 0 0z" fill="#ffeb99"/><path d="m49 11h-40a2.006 2.006 0 0 0 -2 2v4h44v-4a2.006 2.006 0 0 0 -2-2z" fill="#004fac"/><circle cx="50" cy="50" fill="#ff9811" r="11"/><path d="m7 20v29a2 2 0 0 0 2 2h29a30.982 30.982 0 0 1 -31-31z" fill="#ffde55"/><path d="m10 13h2v2h-2z"/><path d="m14 13h2v2h-2z"/><path d="m18 13h2v2h-2z"/><path d="m17 41h6v2h-6z"/><path d="m25 41h2v2h-2z"/><path d="m46 54a1 1 0 0 1 -.707-.293l-3-3a1 1 0 0 1 0-1.414l3-3a1 1 0 0 1 1.414 1.414l-2.293 2.293 2.293 2.293a1 1 0 0 1 -.707 1.707z"/><path d="m54 54a1 1 0 0 1 -.707-1.707l2.293-2.293-2.293-2.293a1 1 0 0 1 1.414-1.414l3 3a1 1 0 0 1 0 1.414l-3 3a1 1 0 0 1 -.707.293z"/><path d="m49 56a.948.948 0 0 1 -.2-.02 1 1 0 0 1 -.78-1.18l2-10a1 1 0 1 1 1.96.392l-2 10a1 1 0 0 1 -.98.808z"/><path d="m12 23v24a1 1 0 0 0 2 0v-24a1 1 0 0 0 -2 0z"/><path d="m20.832 21.445a1 1 0 0 0 -1.387-.277l-3 2a1 1 0 0 0 0 1.664l3 2a1 1 0 1 0 1.11-1.664l-1.755-1.168 1.752-1.168a1 1 0 0 0 .28-1.387z"/><path d="m27.168 26.555a1 1 0 0 0 1.387.277l3-2a1 1 0 0 0 0-1.664l-3-2a1 1 0 0 0 -1.11 1.664l1.755 1.168-1.752 1.168a1 1 0 0 0 -.28 1.387z"/><path d="m25.316 20.051a1 1 0 0 0 -1.265.633l-2 6a1 1 0 0 0 1.9.632l2-6a1 1 0 0 0 -.635-1.265z"/><path d="m17 29h6v2h-6z"/><path d="m25 29h2v2h-2z"/><path d="m21 33h12v2h-12z"/><path d="m39 31h9v2h-9z"/><path d="m21 37h2v2h-2z"/><path d="m25 37h12v2h-12z"/><path d="m39 35h4v2h-4z"/><path d="m35 31h2v2h-2z"/><path d="m50 38a12 12 0 1 0 12 12 12.013 12.013 0 0 0 -12-12zm0 22a10 10 0 1 1 10-10 10.011 10.011 0 0 1 -10 10z"/><path d="m36 50h-27a1 1 0 0 1 -1-1v-31h42v18a1 1 0 0 0 2 0v-23a3 3 0 0 0 -3-3h-40a3 3 0 0 0 -3 3v36a3 3 0 0 0 3 3h27a1 1 0 0 0 0-2zm-27-38h40a1 1 0 0 1 1 1v3h-42v-3a1 1 0 0 1 1-1z"/><path d="m6 62h-4v-8h4v2h-2v4h2z"/><path d="m20 62h-4v-2h2v-4h-2v-2h4z"/><path d="m6 57h2v2h-2z"/><path d="m10 57h2v2h-2z"/><path d="m14 57h2v2h-2z"/><path d="m60 2h2v6h-2z"/><path d="m57 8h-1a2 2 0 0 1 -2-2v-2a2 2 0 0 1 2-2h1a2 2 0 0 1 2 2v2a2 2 0 0 1 -2 2zm-1-4v2h1v-2z"/><path d="m47 8h-1a2 2 0 0 1 -2-2v-2a2 2 0 0 1 2-2h1a2 2 0 0 1 2 2v2a2 2 0 0 1 -2 2zm-1-4v2h1v-2z"/><path d="m50 2h2v6h-2z"/></g></svg>